<?xml version="1.0" standalone="no"?>
<!DOCTYPE svg PUBLIC "-//W3C//DTD SVG 20010904//EN"
 "http://www.w3.org/TR/2001/REC-SVG-20010904/DTD/svg10.dtd">
<svg version="1.0" xmlns="http://www.w3.org/2000/svg"
 width="512.000000pt" height="512.000000pt" viewBox="0 0 512.000000 512.000000"
 preserveAspectRatio="xMidYMid meet">
<metadata>
Created by potrace 1.11, written by Peter Selinger 2001-2013
</metadata>
<g transform="translate(0.000000,512.000000) scale(0.100000,-0.100000)"
fill="#000000" stroke="none">
<path d="M979 5116 c-2 -3 -26 -7 -54 -10 -194 -23 -441 -152 -601 -313 -146
-148 -263 -358 -298 -538 -4 -16 -10 -41 -13 -55 -4 -14 -9 -964 -10 -2113
l-3 -2087 2062 0 c1812 1 2073 3 2143 16 230 44 421 143 581 301 83 82 116
122 170 211 56 92 101 196 132 311 l27 96 3 2093 2 2092 -2068 0 c-1138 0
-2071 -2 -2073 -4z m3821 -2113 c-1 -1121 -5 -1817 -11 -1848 -5 -27 -12 -63
-15 -80 -15 -91 -93 -261 -160 -351 -155 -209 -362 -339 -619 -388 -70 -13
-309 -15 -1878 -16 l-1798 0 4 1822 c1 1003 6 1837 10 1853 45 180 74 249 153
370 152 232 396 383 694 428 14 2 834 5 1823 6 l1797 1 0 -1797z"/>
<path d="M1145 4468 c-119 -25 -244 -95 -332 -187 -84 -87 -159 -251 -170
-372 l-6 -69 322 0 321 0 0 320 0 321 -47 -2 c-27 -2 -66 -6 -88 -11z"/>
<path d="M1440 4160 l0 -320 320 0 320 0 0 320 0 320 -320 0 -320 0 0 -320z"/>
<path d="M2240 4160 l0 -320 320 0 320 0 0 320 0 320 -320 0 -320 0 0 -320z"/>
<path d="M3040 4160 l0 -320 320 0 320 0 0 320 0 320 -320 0 -320 0 0 -320z"/>
<path d="M3840 4160 l0 -320 320 0 320 0 0 320 0 320 -320 0 -320 0 0 -320z"/>
<path d="M640 3360 l0 -320 320 0 320 0 0 320 0 320 -320 0 -320 0 0 -320z"/>
<path d="M1440 3360 l0 -320 320 0 320 0 0 320 0 320 -320 0 -320 0 0 -320z"/>
<path d="M2240 3360 l0 -320 320 0 320 0 0 320 0 320 -320 0 -320 0 0 -320z"/>
<path d="M3040 3360 l0 -320 320 0 320 0 0 320 0 320 -320 0 -320 0 0 -320z"/>
<path d="M3840 3360 l0 -320 320 0 320 0 0 320 0 320 -320 0 -320 0 0 -320z"/>
<path d="M640 2560 l0 -320 320 0 320 0 0 320 0 320 -320 0 -320 0 0 -320z"/>
<path d="M1440 2560 l0 -320 320 0 320 0 0 320 0 320 -320 0 -320 0 0 -320z"/>
<path d="M2240 2560 l0 -320 320 0 320 0 0 320 0 320 -320 0 -320 0 0 -320z"/>
<path d="M3040 2560 l0 -320 320 0 320 0 0 320 0 320 -320 0 -320 0 0 -320z"/>
<path d="M3840 2560 l0 -320 320 0 320 0 0 320 0 320 -320 0 -320 0 0 -320z"/>
<path d="M640 1760 l0 -320 320 0 320 0 0 320 0 320 -320 0 -320 0 0 -320z"/>
<path d="M1440 1760 l0 -320 320 0 320 0 0 320 0 320 -320 0 -320 0 0 -320z"/>
<path d="M2240 1760 l0 -320 320 0 320 0 0 320 0 320 -320 0 -320 0 0 -320z"/>
<path d="M3040 1760 l0 -320 320 0 320 0 0 320 0 320 -320 0 -320 0 0 -320z"/>
<path d="M3840 1760 l0 -320 320 0 320 0 0 320 0 320 -320 0 -320 0 0 -320z"/>
<path d="M640 960 l0 -320 320 0 320 0 0 320 0 320 -320 0 -320 0 0 -320z"/>
<path d="M1440 960 l0 -320 320 0 320 0 0 320 0 320 -320 0 -320 0 0 -320z"/>
<path d="M2240 960 l0 -320 320 0 320 0 0 320 0 320 -320 0 -320 0 0 -320z"/>
<path d="M3040 960 l0 -320 320 0 320 0 0 320 0 320 -320 0 -320 0 0 -320z"/>
<path d="M3840 959 l0 -322 63 7 c146 14 262 66 369 164 121 112 190 249 204
405 l7 67 -322 0 -321 0 0 -321z"/>
</g>
</svg>
